# Blender v2.77 (sub 0) OBJ File: ''
# www.blender.org
o Cone
v 0.000191 -0.010430 -0.000000
v 0.800029 -0.010430 -0.000000
v 0.800029 -0.010230 0.002035
v 0.000191 -0.010230 0.002034
v 0.800029 -0.009636 0.003991
v 0.000191 -0.009636 0.003991
v 0.810444 -0.008672 0.005795
v 0.000191 -0.008672 0.005794
v 0.810444 -0.007375 0.007375
v 0.000191 -0.007375 0.007375
v 0.810444 -0.005795 0.008672
v 0.000191 -0.005795 0.008672
v 0.810444 -0.003992 0.009636
v 0.000191 -0.003992 0.009636
v 0.810444 -0.002035 0.010230
v 0.000191 -0.002035 0.010230
v 0.810444 -0.000000 0.010430
v 0.000191 -0.000000 0.010430
v 0.810444 0.002035 0.010230
v 0.000191 0.002035 0.010230
v 0.810444 0.003991 0.009636
v 0.000191 0.003991 0.009636
v 0.800029 0.005795 0.008672
v 0.000191 0.005795 0.008672
v 0.800029 0.007375 0.007375
v 0.000191 0.007375 0.007375
v 0.800029 0.008672 0.005795
v 0.000191 0.008672 0.005795
v 0.873665 0.009636 0.003992
v 0.000191 0.009636 0.003992
v 0.884080 0.010230 0.002035
v 0.000191 0.010230 0.002035
v 0.884080 0.010430 0.000000
v 0.000191 0.010430 0.000000
v 0.884080 0.010230 -0.002035
v 0.000191 0.010230 -0.002035
v 0.884080 0.009636 -0.003991
v 0.000191 0.009636 -0.003991
v 0.884080 0.008672 -0.005795
v 0.000191 0.008672 -0.005795
v 0.884080 0.007375 -0.007375
v 0.000191 0.007375 -0.007375
v 0.884080 0.005795 -0.008672
v 0.000191 0.005795 -0.008672
v 0.884080 0.003992 -0.009636
v 0.000191 0.003992 -0.009636
v 0.884080 0.002035 -0.010230
v 0.000191 0.002035 -0.010230
v 0.884080 0.000000 -0.010430
v 0.000191 0.000000 -0.010430
v 0.884080 -0.002035 -0.010230
v 0.000191 -0.002035 -0.010230
v 0.884080 -0.003991 -0.009636
v 0.000191 -0.003991 -0.009636
v 0.884080 -0.005795 -0.008672
v 0.000191 -0.005795 -0.008672
v 0.884080 -0.007375 -0.007375
v 0.000191 -0.007375 -0.007375
v 0.884080 -0.008672 -0.005795
v 0.000191 -0.008672 -0.005795
v 0.803033 -0.009636 -0.003992
v 0.000191 -0.009636 -0.003992
v 0.800029 -0.010230 -0.002035
v 0.000191 -0.010230 -0.002035
v 1.002192 0.059596 0.060080
v 1.002192 -0.059444 0.060080
v 0.883153 0.059596 -0.058959
v 0.883153 -0.059444 -0.058959
v 0.883153 0.059596 0.060080
v 0.883153 -0.059444 0.060080
v 1.002192 0.059596 -0.058959
v 1.002192 -0.059444 -0.058959
vn 0.0000 -0.0000 1.0000
vn 0.0000 -1.0000 0.0000
vn 1.0000 0.0000 0.0000
vn 0.0000 0.0000 -1.0000
vn -1.0000 0.0000 0.0000
vn 0.0000 1.0000 0.0000
vn -0.0000 -0.9952 0.0978
vn 0.0000 -0.9570 0.2902
vn -0.0000 -0.8819 0.4714
vn -0.0000 -0.7730 0.6344
vn 0.0000 -0.6345 0.7729
vn 0.0000 -0.4715 0.8819
vn 0.0000 -0.2904 0.9569
vn 0.0000 -0.0978 0.9952
vn 0.0000 0.0978 0.9952
vn 0.0000 0.2906 0.9569
vn 0.0000 0.4713 0.8820
vn 0.0000 0.6345 0.7729
vn 0.0000 0.7729 0.6345
vn 0.0000 0.8819 0.4715
vn -0.0000 0.9570 0.2900
vn 0.0005 0.9569 0.2904
vn 0.0002 0.9570 0.2900
vn 0.0000 0.9952 0.0978
vn 0.0000 0.9952 -0.0978
vn 0.0000 0.9569 -0.2906
vn 0.0000 0.8820 -0.4713
vn 0.0000 0.7729 -0.6345
vn 0.0000 0.6345 -0.7729
vn 0.0000 0.4715 -0.8819
vn 0.0000 0.2904 -0.9569
vn 0.0000 0.0978 -0.9952
vn 0.0000 -0.0978 -0.9952
vn 0.0000 -0.2906 -0.9569
vn 0.0000 -0.4713 -0.8820
vn 0.0000 -0.6345 -0.7729
vn 0.0000 -0.7729 -0.6345
vn 0.0000 -0.8819 -0.4715
vn 0.2086 -0.4625 0.8617
vn -0.0000 -0.9570 -0.2900
vn -0.0004 -0.9570 -0.2902
vn -0.0002 -0.9570 -0.2900
vn 0.0000 -0.9952 -0.0978
s off
f 65//1 69//1 70//1 66//1
f 70//2 68//2 72//2 66//2
f 71//3 65//3 66//3 72//3
f 67//4 71//4 72//4 68//4
f 69//5 67//5 68//5 70//5
f 65//6 71//6 67//6 69//6
s 1
f 1//7 2//7 3//7 4//7
f 4//8 3//8 5//8 6//8
f 6//9 5//9 7//9 8//9
f 8//10 7//10 9//10 10//10
f 10//11 9//11 11//11 12//11
f 12//12 11//12 13//12 14//12
f 14//13 13//13 15//13 16//13
f 16//14 15//14 17//14 18//14
f 18//15 17//15 19//15 20//15
f 20//16 19//16 21//16 22//16
f 22//17 21//17 23//17 24//17
f 24//18 23//18 25//18 26//18
f 26//19 25//19 27//19 28//19
f 28//20 27//20 29//20 30//20
f 30//21 29//22 31//23 32//21
f 32//24 31//24 33//24 34//24
f 34//25 33//25 35//25 36//25
f 36//26 35//26 37//26 38//26
f 38//27 37//27 39//27 40//27
f 40//28 39//28 41//28 42//28
f 42//29 41//29 43//29 44//29
f 44//30 43//30 45//30 46//30
f 46//31 45//31 47//31 48//31
f 48//32 47//32 49//32 50//32
f 50//33 49//33 51//33 52//33
f 52//34 51//34 53//34 54//34
f 54//35 53//35 55//35 56//35
f 56//36 55//36 57//36 58//36
f 58//37 57//37 59//37 60//37
f 60//38 59//38 61//38 62//38
f 3//39 2//39 63//39 61//39 59//39 57//39 55//39 53//39 51//39 49//39 47//39 45//39 43//39 41//39 39//39 37//39 35//39 33//39 31//39 29//39 27//39 25//39 23//39 21//39 19//39 17//39 15//39 13//39 11//39 9//39 7//39 5//39
f 62//40 61//41 63//42 64//40
f 64//43 63//43 2//43 1//43
f 32//5 48//5 64//5
f 64//5 1//5 4//5
f 4//5 6//5 8//5
f 8//5 10//5 12//5
f 12//5 14//5 16//5
f 16//5 18//5 20//5
f 20//5 22//5 16//5
f 24//5 26//5 16//5
f 28//5 30//5 32//5
f 32//5 34//5 36//5
f 36//5 38//5 32//5
f 40//5 42//5 32//5
f 44//5 46//5 42//5
f 48//5 50//5 52//5
f 52//5 54//5 48//5
f 56//5 58//5 60//5
f 60//5 62//5 64//5
f 64//5 4//5 8//5
f 8//5 12//5 16//5
f 16//5 22//5 24//5
f 26//5 28//5 32//5
f 32//5 38//5 40//5
f 42//5 46//5 48//5
f 48//5 54//5 56//5
f 56//5 60//5 48//5
f 64//5 8//5 32//5
f 16//5 26//5 32//5
f 32//5 42//5 48//5
f 48//5 60//5 64//5
f 8//5 16//5 32//5
